<svg width="64" height="66" viewBox="0 0 64 66" fill="none" xmlns="http://www.w3.org/2000/svg">
<path d="M54.025 49.7191H9.97501C8.96251 49.7191 8.15001 48.8812 8.15001 47.8371V45.8519C8.15001 32.291 18.85 21.2566 32 21.2566C34.4875 21.2566 36.9375 21.6562 39.2875 22.4296C40.25 22.7519 40.775 23.8089 40.475 24.8015C40.1625 25.7941 39.1375 26.3355 38.175 26.0261C36.1875 25.3687 34.1125 25.0335 32 25.0335C20.8625 25.0335 11.8 34.3793 11.8 45.8648V45.9679H52.2V45.8648C52.2 40.2703 50.075 35.0109 46.225 31.0664C45.5125 30.3316 45.5 29.1457 46.2125 28.398C46.925 27.6632 48.075 27.6503 48.8 28.3851C53.35 33.0386 55.8625 39.239 55.8625 45.8519V47.8371C55.85 48.8812 55.0375 49.7191 54.025 49.7191Z" fill="#F0BF5F"/>
<path d="M32 24.5823C30.9875 24.5823 30.175 23.7445 30.175 22.7003V17.3636C30.175 16.3195 30.9875 15.4816 32 15.4816C33.0125 15.4816 33.825 16.3195 33.825 17.3636V22.7003C33.825 23.7445 33.0125 24.5823 32 24.5823Z" fill="#F0BF5F"/>
<path d="M36.4751 18.8074H27.5251C26.5126 18.8074 25.7001 17.9695 25.7001 16.9254C25.7001 15.8812 26.5126 15.0433 27.5251 15.0433H36.4751C37.4876 15.0433 38.3001 15.8812 38.3001 16.9254C38.3001 17.9695 37.4876 18.8074 36.4751 18.8074Z" fill="#F0BF5F"/>
<path d="M47.9875 47.8372H16V55.7649H47.9875V47.8372Z" fill="#CEE8FA"/>
<path d="M48 57.6469H16C14.9875 57.6469 14.175 56.809 14.175 55.7648V47.8371C14.175 46.793 14.9875 45.9551 16 45.9551H48C49.0125 45.9551 49.825 46.793 49.825 47.8371V55.7648C49.825 56.809 49 57.6469 48 57.6469ZM17.8375 53.8828H46.175V49.7191H17.8375V53.8828Z" fill="#F0BF5F"/>
<path d="M54.2375 61.8105H9.76249C7.63749 61.8105 5.91249 60.0316 5.91249 57.8402C5.91249 55.6488 7.63749 53.8699 9.76249 53.8699H54.2375C56.3625 53.8699 58.0875 55.6488 58.0875 57.8402C58.075 60.0316 56.3625 61.8105 54.2375 61.8105Z" fill="#CEE8FA"/>
<path d="M54.2375 63.6925H9.76251C6.63751 63.6925 4.08751 61.0757 4.08751 57.8401C4.08751 54.6046 6.62501 51.9878 9.76251 51.9878H54.2375C57.3625 51.9878 59.9125 54.6175 59.9125 57.8401C59.9 61.0757 57.3625 63.6925 54.2375 63.6925ZM9.76251 55.7647C8.65001 55.7647 7.75001 56.6929 7.75001 57.8401C7.75001 58.9874 8.65001 59.9155 9.76251 59.9155H54.2375C55.35 59.9155 56.25 58.9874 56.25 57.8401C56.25 56.6929 55.35 55.7647 54.2375 55.7647H9.76251Z" fill="#2D527C"/>
<path d="M32 9.73237C30.9875 9.73237 30.175 8.89448 30.175 7.85034V4.1894C30.175 3.14526 30.9875 2.30737 32 2.30737C33.0125 2.30737 33.825 3.14526 33.825 4.1894V7.85034C33.825 8.89448 33.0125 9.73237 32 9.73237Z" fill="#2D527C"/>
<path d="M62.175 35.3074H58.625C57.6125 35.3074 56.8 34.4695 56.8 33.4254C56.8 32.3812 57.6125 31.5433 58.625 31.5433H62.175C63.1875 31.5433 64 32.3812 64 33.4254C64 34.4695 63.1875 35.3074 62.175 35.3074Z" fill="#2D527C"/>
<path d="M5.375 35.3074H1.825C0.8125 35.3074 0 34.4695 0 33.4254C0 32.3812 0.8125 31.5433 1.825 31.5433H5.375C6.3875 31.5433 7.2 32.3812 7.2 33.4254C7.2 34.4695 6.3875 35.3074 5.375 35.3074Z" fill="#2D527C"/>
<path d="M49.5375 17.2219C49.075 17.2219 48.6 17.0414 48.25 16.6676C47.5375 15.9328 47.5375 14.734 48.25 13.9992L50.75 11.4211C51.4625 10.6863 52.625 10.6863 53.3375 11.4211C54.05 12.1558 54.05 13.3547 53.3375 14.0894L50.825 16.6804C50.475 17.0414 50 17.2219 49.5375 17.2219Z" fill="#2D527C"/>
<path d="M14.4625 17.2218C14 17.2218 13.525 17.0413 13.175 16.6675L10.6625 14.0765C9.95004 13.3417 9.95004 12.1429 10.6625 11.4081C11.375 10.6734 12.5375 10.6734 13.25 11.4081L15.7625 13.9991C16.475 14.7339 16.475 15.9327 15.7625 16.6675C15.4 17.0413 14.9375 17.2218 14.4625 17.2218Z" fill="#2D527C"/>
</svg>
